<?xml version="1.0" encoding="utf-8"?>
<svg viewBox="-36 -24 72 48" xmlns="http://www.w3.org/2000/svg">
  <path d="M-36-24h72v48h-72z" fill="#fff"/>
  <g transform="matrix(0.554700192816621, -0.832050296610249, 0.832050296610249, 0.554700192816621, 0, 0)">
    <g id="b2">
      <path id="b" d="M-6-26H6v2H-6zm0 3H6v2H-6zm0 3H6v2H-6z"/>
      <path d="M-6-26H6v2H-6zm0 3H6v2H-6zm0 3H6v2H-6z" transform="matrix(1, 0, 0, 1, 0, 44)"/>
    </g>
    <path stroke="#fff" d="M0,17v10"/>
    <path fill="#cd2e3a" d="M0-12A12 12 0 0 1 0 12z"/>
    <path fill="#0047a0" d="M0-12A12 12 0 0 0 0 12 6 6 0 0 0 0 0z"/>
    <circle cy="-6" fill="#cd2e3a" r="6"/>
  </g>
  <g transform="matrix(-0.5547002482137191, -0.8320502596788479, 0.8320502596788479, -0.5547002482137191, 0, 0)">
    <g>
      <path d="M-6-26H6v2H-6zm0 3H6v2H-6zm0 3H6v2H-6z"/>
      <path d="M-6-26H6v2H-6zm0 3H6v2H-6zm0 3H6v2H-6z" transform="matrix(1, 0, 0, 1, 0, 44)"/>
    </g>
    <path stroke="#fff" d="M0-23.5v3M0,17v3.5M0,23.5v3"/>
  </g>
  <line style="fill: rgb(216, 216, 216); stroke: rgb(0, 0, 0);" x1="-36.001" y1="-23.502" x2="36.186" y2="-23.503"/>
  <line style="fill: rgb(216, 216, 216); stroke: rgb(0, 0, 0);" x1="35.496" y1="23.97" x2="35.684" y2="-24.022"/>
  <line style="fill: rgb(216, 216, 216); stroke: rgb(0, 0, 0);" x1="36.023" y1="23.514" x2="-35.892" y2="23.502"/>
  <line style="fill: rgb(216, 216, 216); stroke: rgb(0, 0, 0);" x1="-35.51" y1="-24.011" x2="-35.506" y2="24.035"/>
</svg>